# Blender v2.79 (sub 0) OBJ File: ''
# www.blender.org
mtllib lateralSignTextured.mtl
g HighwaySign_Board003
v -1.349894 4.426904 0.293582
v -3.136178 3.108193 0.293582
v -1.349894 3.108193 0.293582
v -3.136178 4.426904 0.293582
v -3.136178 3.108193 0.247588
v -1.349894 4.426904 0.247589
v -1.349894 3.108193 0.247588
v -3.136178 4.426904 0.247589
v 3.113692 4.426904 0.293582
v 1.327408 3.108193 0.293582
v 3.113692 3.108193 0.293582
v 1.327408 4.426904 0.293582
v 1.327408 3.108193 0.247588
v 3.113692 4.426904 0.247589
v 3.113692 3.108193 0.247588
v 1.327408 4.426904 0.247589
vt 0.979101 1.002837
vt 0.105562 0.003024
vt 0.979101 0.003024
vt 0.105562 1.002837
vt 0.979101 1.002837
vt 0.105562 0.003024
vt 0.979101 0.003024
vt 0.105562 1.002837
vt 0.000000 0.000000
vt 0.000000 0.000000
vt 0.000000 0.000000
vt 0.000000 0.000000
vt 0.000000 0.000000
vt 0.000000 0.000000
vt 0.000000 0.000000
vt 0.000000 0.000000
vt 0.000000 0.000000
vt 0.000000 0.000000
vt 0.000000 0.000000
vt 0.000000 0.000000
vt 0.000000 0.000000
vt 0.000000 0.000000
vt 0.000000 0.000000
vt 0.000000 0.000000
vn 0.5774 0.5774 0.5774
vn -0.5774 -0.5774 0.5774
vn 0.5774 -0.5774 0.5774
vn -0.5773 0.5774 0.5774
vn -0.5773 -0.5774 -0.5774
vn 0.5773 0.5774 -0.5774
vn 0.5774 -0.5774 -0.5774
vn -0.5774 0.5774 -0.5773
usemtl HighwaySign_Board
s 1
f 1/1/1 2/2/2 3/3/3
f 1/1/1 4/4/4 2/2/2
f 9/5/1 10/6/2 11/7/3
f 9/5/1 12/8/4 10/6/2
usemtl HighwaySign_Board_NONE
f 5/9/5 6/10/6 7/11/7
f 2/12/2 7/11/7 3/13/3
f 4/14/4 5/9/5 2/12/2
f 1/15/1 8/16/8 4/14/4
f 3/13/3 6/10/6 1/15/1
f 5/9/5 8/16/8 6/10/6
f 2/12/2 5/9/5 7/11/7
f 4/14/4 8/16/8 5/9/5
f 1/15/1 6/10/6 8/16/8
f 3/13/3 7/11/7 6/10/6
f 13/17/5 14/18/6 15/19/7
f 10/20/2 15/19/7 11/21/3
f 12/22/4 13/17/5 10/20/2
f 9/23/1 16/24/8 12/22/4
f 11/21/3 14/18/6 9/23/1
f 13/17/5 16/24/8 14/18/6
f 10/20/2 13/17/5 15/19/7
f 12/22/4 16/24/8 13/17/5
f 9/23/1 14/18/6 16/24/8
f 11/21/3 15/19/7 14/18/6
