# Blender v2.79 (sub 0) OBJ File: ''
# www.blender.org
mtllib strada3.mtl
g Cube.000_Cube.004
v 3.981204 0.000002 -50.310318
v -3.981218 0.000006 -65.310349
v -3.981216 0.000002 -50.310318
v 3.981202 0.000006 -65.310349
v 3.981204 -0.000001 -35.310345
v -3.981218 0.000004 -50.310375
v -3.981216 -0.000001 -35.310345
v 3.981202 0.000004 -50.310375
v 3.981204 -0.000002 -20.310318
v -3.981218 0.000001 -35.310349
v -3.981216 -0.000002 -20.310318
v 3.981202 0.000001 -35.310349
v 3.981204 -0.000004 -5.310349
v -3.981218 -0.000001 -20.310379
v -3.981216 -0.000004 -5.310349
v 3.981202 -0.000001 -20.310375
v 3.981204 -0.000007 9.689678
v -3.981218 -0.000002 -5.310349
v -3.981216 -0.000007 9.689678
v 3.981202 -0.000002 -5.310352
v 2.631087 0.262514 -50.310371
v 2.631087 -0.112480 -65.310349
v 2.631087 -0.112486 -50.310371
v 3.981204 -0.112486 -50.310371
v 3.981204 -0.112480 -65.310349
v 3.981204 0.262514 -50.310371
v 3.981204 0.262520 -65.310349
v -3.981218 0.262514 -50.310375
v -3.981218 -0.112480 -65.310349
v -3.981218 -0.112486 -50.310375
v -2.631101 -0.112486 -50.310375
v -2.631101 -0.112480 -65.310349
v -2.631101 0.262514 -50.310375
v -2.631101 0.262520 -65.310349
v 2.631087 0.262514 -50.310371
v 2.631087 -0.112490 -35.310402
v 2.631087 0.262510 -35.310402
v 2.631087 -0.112486 -50.310371
v 3.981204 -0.112490 -35.310402
v 3.981204 -0.112486 -50.310371
v 3.981204 0.262510 -35.310402
v 3.981204 0.262514 -50.310371
v -3.981218 0.262514 -50.310375
v -3.981218 -0.112490 -35.310402
v -3.981218 0.262510 -35.310402
v -3.981218 -0.112486 -50.310375
v -2.631101 -0.112490 -35.310402
v -2.631101 -0.112486 -50.310375
v -2.631101 0.262510 -35.310402
v -2.631101 0.262514 -50.310375
v 2.631087 0.262504 -20.310375
v 2.631087 -0.112492 -35.310349
v 2.631087 -0.112496 -20.310375
v 3.981204 -0.112496 -20.310375
v 3.981204 -0.112492 -35.310349
v 3.981204 0.262504 -20.310375
v 3.981204 0.262508 -35.310349
v -3.981218 0.262504 -20.310375
v -3.981218 -0.112492 -35.310349
v -3.981218 -0.112496 -20.310375
v -2.631101 -0.112496 -20.310375
v -2.631101 -0.112492 -35.310349
v -2.631101 0.262504 -20.310375
v -2.631101 0.262508 -35.310349
v 2.631087 0.262498 -5.310402
v 2.631087 -0.112499 -20.310375
v 2.631087 -0.112502 -5.310402
v 3.981204 -0.112502 -5.310402
v 3.981204 -0.112499 -20.310375
v 3.981204 0.262498 -5.310402
v 3.981204 0.262502 -20.310375
v -3.981218 0.262498 -5.310406
v -3.981218 -0.112498 -20.310379
v -3.981218 -0.112502 -5.310406
v -2.631101 -0.112502 -5.310406
v -2.631101 -0.112498 -20.310379
v -2.631101 0.262498 -5.310406
v -2.631101 0.262502 -20.310379
v 2.631087 0.262498 -5.310352
v 2.631087 -0.112508 9.689617
v 2.631087 0.262492 9.689617
v 2.631087 -0.112502 -5.310352
v 3.981204 -0.112508 9.689617
v 3.981204 -0.112502 -5.310352
v 3.981204 0.262492 9.689617
v 3.981204 0.262498 -5.310352
v -3.981218 0.262498 -5.310349
v -3.981218 -0.112508 9.689625
v -3.981218 0.262492 9.689625
v -3.981218 -0.112505 -5.310349
v -2.631101 -0.112508 9.689617
v -2.631101 -0.112505 -5.310349
v -2.631101 0.262492 9.689617
v -2.631101 0.262498 -5.310349
v 2.631087 0.262520 -65.310349
v -3.981218 0.262520 -65.310349
v 2.631087 0.262508 -35.310349
v -3.981218 0.262508 -35.310349
v 2.631087 0.262502 -20.310375
v -3.981218 0.262502 -20.310379
vt 0.954209 0.412253
vt 0.098129 0.671667
vt 0.143994 -0.008612
vt 0.658344 0.842532
vt 0.954209 0.412253
vt 0.098129 0.671667
vt 0.143994 -0.008612
vt 0.658344 0.842532
vt 0.954209 0.412253
vt 0.098129 0.671667
vt 0.143994 -0.008612
vt 0.658344 0.842532
vt 0.954209 0.412253
vt 0.098129 0.671667
vt 0.143994 -0.008612
vt 0.658344 0.842532
vt 0.954209 0.412253
vt 0.098129 0.671667
vt 0.143994 -0.008612
vt 0.658344 0.842532
vt 0.000000 0.000000
vt 0.000000 0.000000
vt 0.000000 0.000000
vt 0.000000 0.000000
vt 0.000000 0.000000
vt 0.000000 0.000000
vt 0.000000 0.000000
vt 0.000000 0.000000
vt 0.000000 0.000000
vt 0.000000 0.000000
vt 0.000000 0.000000
vt 0.000000 0.000000
vt 0.000000 0.000000
vt 0.000000 0.000000
vt 0.000000 0.000000
vt 0.000000 0.000000
vt 0.000000 0.000000
vt 0.000000 0.000000
vt 0.000000 0.000000
vt 0.000000 0.000000
vt 0.000000 0.000000
vt 0.000000 0.000000
vt 0.000000 0.000000
vt 0.000000 0.000000
vt 0.000000 0.000000
vt 0.000000 0.000000
vt 0.000000 0.000000
vt 0.000000 0.000000
vt 0.000000 0.000000
vt 0.000000 0.000000
vt 0.000000 0.000000
vt 0.000000 0.000000
vt 0.000000 0.000000
vt 0.000000 0.000000
vt 0.000000 0.000000
vt 0.000000 0.000000
vt 0.000000 0.000000
vt 0.000000 0.000000
vt 0.000000 0.000000
vt 0.000000 0.000000
vt 0.000000 0.000000
vt 0.000000 0.000000
vt 0.000000 0.000000
vt 0.000000 0.000000
vt 0.000000 0.000000
vt 0.000000 0.000000
vt 0.000000 0.000000
vt 0.000000 0.000000
vt 0.000000 0.000000
vt 0.000000 0.000000
vt 0.000000 0.000000
vt 0.000000 0.000000
vt 0.000000 0.000000
vt 0.000000 0.000000
vt 0.000000 0.000000
vt 0.000000 0.000000
vt 0.000000 0.000000
vt 0.000000 0.000000
vt 0.000000 0.000000
vt 0.000000 0.000000
vt 0.000000 0.000000
vt 0.000000 0.000000
vt 0.000000 0.000000
vt 0.000000 0.000000
vt 0.000000 0.000000
vt 0.000000 0.000000
vt 0.000000 0.000000
vt 0.000000 0.000000
vt 0.000000 0.000000
vt 0.000000 0.000000
vt 0.000000 0.000000
vt 0.000000 0.000000
vt 0.000000 0.000000
vt 0.000000 0.000000
vt 0.000000 0.000000
vt 0.000000 0.000000
vt 0.000000 0.000000
vt 0.000000 0.000000
vt 0.000000 0.000000
vt 0.000000 0.000000
vn 0.0000 1.0000 0.0000
vn -1.0000 0.0000 0.0000
vn 0.0000 -1.0000 -0.0000
vn 1.0000 0.0000 0.0000
vn 0.0000 0.0000 1.0000
vn 0.0000 0.0000 -1.0000
usemtl Material.002
s 1
f 1/1/1 2/2/1 3/3/1
f 1/1/1 4/4/1 2/2/1
f 5/5/1 6/6/1 7/7/1
f 5/5/1 8/8/1 6/6/1
f 9/9/1 10/10/1 11/11/1
f 9/9/1 12/12/1 10/10/1
f 13/13/1 14/14/1 15/15/1
f 13/13/1 16/16/1 14/14/1
f 17/17/1 18/18/1 19/19/1
f 17/17/1 20/20/1 18/18/1
usemtl Material.001_NONE.001
s off
f 21/21/2 22/22/2 23/23/2
f 22/22/3 24/24/3 23/23/3
f 25/25/4 26/26/4 24/24/4
f 27/27/1 21/21/1 26/26/1
f 24/24/5 21/21/5 23/23/5
f 22/22/6 27/27/6 25/25/6
f 28/28/2 29/29/2 30/30/2
f 29/29/3 31/31/3 30/30/3
f 32/32/4 33/33/4 31/31/4
f 34/34/1 28/28/1 33/33/1
f 31/31/5 28/28/5 30/30/5
f 29/29/6 34/34/6 32/32/6
f 35/35/2 36/36/2 37/37/2
f 38/38/3 39/39/3 36/36/3
f 40/40/4 41/41/4 39/39/4
f 42/42/1 37/37/1 41/41/1
f 39/39/5 37/37/5 36/36/5
f 38/38/6 42/42/6 40/40/6
f 43/43/2 44/44/2 45/45/2
f 46/46/3 47/47/3 44/44/3
f 48/48/4 49/49/4 47/47/4
f 50/50/1 45/45/1 49/49/1
f 47/47/5 45/45/5 44/44/5
f 46/46/6 50/50/6 48/48/6
f 51/51/2 52/52/2 53/53/2
f 52/52/3 54/54/3 53/53/3
f 55/55/4 56/56/4 54/54/4
f 57/57/1 51/51/1 56/56/1
f 54/54/5 51/51/5 53/53/5
f 52/52/6 57/57/6 55/55/6
f 58/58/2 59/59/2 60/60/2
f 59/59/3 61/61/3 60/60/3
f 62/62/4 63/63/4 61/61/4
f 64/64/1 58/58/1 63/63/1
f 61/61/5 58/58/5 60/60/5
f 59/59/6 64/64/6 62/62/6
f 65/65/2 66/66/2 67/67/2
f 66/66/3 68/68/3 67/67/3
f 69/69/4 70/70/4 68/68/4
f 71/71/1 65/65/1 70/70/1
f 68/68/5 65/65/5 67/67/5
f 66/66/6 71/71/6 69/69/6
f 72/72/2 73/73/2 74/74/2
f 73/73/3 75/75/3 74/74/3
f 76/76/4 77/77/4 75/75/4
f 78/78/1 72/72/1 77/77/1
f 75/75/5 72/72/5 74/74/5
f 73/73/6 78/78/6 76/76/6
f 79/79/2 80/80/2 81/81/2
f 82/82/3 83/83/3 80/80/3
f 84/84/4 85/85/4 83/83/4
f 86/86/1 81/81/1 85/85/1
f 83/83/5 81/81/5 80/80/5
f 82/82/6 86/86/6 84/84/6
f 87/87/2 88/88/2 89/89/2
f 90/90/3 91/91/3 88/88/3
f 92/92/4 93/93/4 91/91/4
f 93/93/1 87/87/1 89/89/1
f 91/91/5 89/89/5 88/88/5
f 90/90/6 94/94/6 92/92/6
f 21/21/2 95/95/2 22/22/2
f 22/22/3 25/25/3 24/24/3
f 25/25/4 27/27/4 26/26/4
f 27/27/1 95/95/1 21/21/1
f 24/24/5 26/26/5 21/21/5
f 22/22/6 95/95/6 27/27/6
f 28/28/2 96/96/2 29/29/2
f 29/29/3 32/32/3 31/31/3
f 32/32/4 34/34/4 33/33/4
f 34/34/1 96/96/1 28/28/1
f 31/31/5 33/33/5 28/28/5
f 29/29/6 96/96/6 34/34/6
f 35/35/2 38/38/2 36/36/2
f 38/38/3 40/40/3 39/39/3
f 40/40/4 42/42/4 41/41/4
f 42/42/1 35/35/1 37/37/1
f 39/39/5 41/41/5 37/37/5
f 38/38/6 35/35/6 42/42/6
f 43/43/2 46/46/2 44/44/2
f 46/46/3 48/48/3 47/47/3
f 48/48/4 50/50/4 49/49/4
f 50/50/1 43/43/1 45/45/1
f 47/47/5 49/49/5 45/45/5
f 46/46/6 43/43/6 50/50/6
f 51/51/2 97/97/2 52/52/2
f 52/52/3 55/55/3 54/54/3
f 55/55/4 57/57/4 56/56/4
f 57/57/1 97/97/1 51/51/1
f 54/54/5 56/56/5 51/51/5
f 52/52/6 97/97/6 57/57/6
f 58/58/2 98/98/2 59/59/2
f 59/59/3 62/62/3 61/61/3
f 62/62/4 64/64/4 63/63/4
f 64/64/1 98/98/1 58/58/1
f 61/61/5 63/63/5 58/58/5
f 59/59/6 98/98/6 64/64/6
f 65/65/2 99/99/2 66/66/2
f 66/66/3 69/69/3 68/68/3
f 69/69/4 71/71/4 70/70/4
f 71/71/1 99/99/1 65/65/1
f 68/68/5 70/70/5 65/65/5
f 66/66/6 99/99/6 71/71/6
f 72/72/2 100/100/2 73/73/2
f 73/73/3 76/76/3 75/75/3
f 76/76/4 78/78/4 77/77/4
f 78/78/1 100/100/1 72/72/1
f 75/75/5 77/77/5 72/72/5
f 73/73/6 100/100/6 78/78/6
f 79/79/2 82/82/2 80/80/2
f 82/82/3 84/84/3 83/83/3
f 84/84/4 86/86/4 85/85/4
f 86/86/1 79/79/1 81/81/1
f 83/83/5 85/85/5 81/81/5
f 82/82/6 79/79/6 86/86/6
f 87/87/2 90/90/2 88/88/2
f 90/90/3 92/92/3 91/91/3
f 92/92/4 94/94/4 93/93/4
f 93/93/1 94/94/1 87/87/1
f 91/91/5 93/93/5 89/89/5
f 90/90/6 87/87/6 94/94/6
